# xmcd
# Track frame offsets:
# 183
# 16518
# 26708
# 37585
# 49030
# 60010
# 75005
# 87833
# 106208
# 123008
# 135970
# 149028
# 166360
# 184088
# 200705
#
# Disc length: 2887 seconds
# Revision: 3
# Processed by: cddbd v1.5PL3 Copyright (c) Steve Scherf et al.
# Submitted via: VisiTrax 2.9.9.209 - For more info visit www.synapsa.com
#
DISCID=a80b450f
DTITLE=Various Artist - Country Ballads, Disk 3
DYEAR=1995
DGENRE=Country
TTITLE0=Larry Gatlin, The Gatlin Brothers - Country Girl Heart
TTITLE1=Willie Nelson - There'll Be No Teardrops Tonight
TTITLE2=Crystal Gayle - All I Wanna Do In Life
TTITLE3=Slim Whitman - I'm Walking Behind You
TTITLE4=Glen Cambell - It's Only Make Believe
TTITLE5=Bobby Gentry - You've Made Me So Very Happy
TTITLE6=Don Williams - You Love Me Through It All
TTITLE7=Billy Crash Craddock - I Just Had You On My Mind
TTITLE8=Olivia Newton John - Love is the opening door
TTITLE9=Dr Hook - Sharing The Night Together
TTITLE10=Billie Jo Spears - What The World Needs Now Is Love
TTITLE11=Kenny Rogers - We've Got Tonite
TTITLE12=Dottie West - Hey Mr. Dream Maker
TTITLE13=Don McLean - Cryin'
TTITLE14=Tanya Tucker - My Arms Stay Open All Night
EXTD=
EXTT0=
EXTT1=
EXTT2=
EXTT3=
EXTT4=
EXTT5=
EXTT6=
EXTT7=
EXTT8=
EXTT9=
EXTT10=
EXTT11=
EXTT12=
EXTT13=
EXTT14=
PLAYORDER=
